<?xml version="1.0" encoding="UTF-8"?>
<svg id="Capa_1" data-name="Capa 1" xmlns="http://www.w3.org/2000/svg" viewBox="0 0 56.69 56.69">
  <defs>
    <style>
      .cls-1 {
        fill: #d7062f;
        stroke: #d7062f;
        stroke-miterlimit: 10;
        stroke-width: .5px;
      }
    </style>
  </defs>
  <path class="cls-1" d="M53.43,27.06c-.76-7.46-4.23-13.32-10.54-17.43-6.79-4.43-14.44-4.85-21.91-3.14C11.92,8.54,6.09,14.63,3.85,23.71c-1.59,6.45-.54,12.59,3.37,18.02,6.17,8.57,15.21,10.39,24.85,8.98,9.44-1.39,15.19-8.04,16.59-17.52,1.35-9.17-2.59-16.99-10.62-21.04-3.51-1.77-7.33-1.6-11.12-1.77-7.94-.37-15.11,4.93-17.77,11.9-3.31,8.66,.33,18.34,8.67,22.42,3.67,1.8,7.65,1.73,11.61,1.76,2.83,.02,5.4-.84,7.69-2.41,5.45-3.71,7.39-9.13,7.07-15.41-.27-5.3-2.95-9.29-7.57-11.98-2.51-1.47-5.31-1.41-8.08-1.68-9.85-.94-17.5,7.21-15.62,16.79,.93,4.73,5.21,9,9.58,9.49-.14-1.28-1.07-1.88-2.04-2.39-1.72-.9-3.1-2.19-4.21-3.72-1.41-1.95-2.1-4.14-2.02-6.62,5.46,5.45,10.79,10.78,16.19,16.17-1.89,0-3.83,.12-5.75-.02-8.16-.6-13.21-5.96-14.73-12.38-2.61-11.1,7.54-21,16.71-20.25,1.44,.12,2.9-.01,4.35,.08,4.8,.29,8.79,2.3,11.95,5.86,3.95,4.44,4.86,9.73,3.96,15.39-.82,5.18-3.15,9.64-7.57,12.62-7.49,5.05-15.6,4.52-23.26,.96-7.44-3.45-11.28-9.92-11.17-18.21,.11-8.61,4.33-14.9,11.86-19.04,4.18-2.3,8.76-2.22,13.35-2.21,5.57,.01,10.34,1.96,14.45,5.58,8.32,7.35,9.44,19.09,4.56,28.42-1.03,1.97-2.27,3.8-3.77,5.46-.42,.46-1.13,1.01-.35,1.67,.79,.67,1.17-.21,1.6-.63,.51-.51,.99-1.05,1.43-1.62,4.4-5.72,6.14-12.17,5.41-19.31Zm-21.86-10.17c5.37,.49,10.76,5.96,10.75,10.42-3.51-3.18-7.3-6.6-11.08-10.02,.11-.13,.22-.26,.33-.4Zm-6.66-.17c1.71-.29,3.22-.35,4.65,1.14,3.89,4.04,7.86,8.01,11.96,11.85,1.31,1.23,1.03,2.4,.77,3.73-.11,.57-.46,.54-.82,.17-5.53-5.54-11.05-11.08-16.58-16.63-.02-.02,0-.1,.02-.26Zm-4.28,1.48c.68-.58,1.58-1.35,2.62-.29,2.57,2.61,5.21,5.17,7.79,7.77,3.13,3.15,6.24,6.33,9.35,9.5,.37,.38,.9,.68,.92,1.34-.32,.63-.49,1.46-1.14,1.76-.59,.27-.92-.48-1.29-.85-5.89-5.9-11.77-11.81-17.62-17.75-.37-.37-1.49-.76-.64-1.49Zm-3.59,2.97c.37-.54,.87-.98,1.19-1.33,.64,0,.84,.29,1.07,.52,6.31,6.34,12.62,12.69,18.95,19.02,.66,.66,.65,1.09-.03,1.74-.68,.64-1.16,.88-1.92,.1-6.25-6.33-12.53-12.63-18.8-18.94-.3-.3-.79-.62-.45-1.11Zm7.95,15.08c-3.24-3.26-6.47-6.55-9.69-9.84-.4-.41-1.01-.82-.49-1.54,.34-.47,.43-1.15,1.16-1.44,.27,.23,.57,.46,.84,.73,5.9,5.94,11.81,11.87,17.69,17.83,.33,.34,1.34,.73,.45,1.35-.65,.45-1.34,1.5-2.41,.41-2.48-2.54-5.04-5-7.54-7.52Z"/>
</svg>