<svg width="72" height="73" viewBox="0 0 72 73" fill="none" xmlns="http://www.w3.org/2000/svg">
<g opacity="0.75">
<rect y="0.117188" width="72" height="72" rx="36" fill="#A6ED8E"/>
<path d="M49.05 34.4291L31.04 23.4116C30.7364 23.2256 30.3886 23.1241 30.0326 23.1175C29.6766 23.1109 29.3253 23.1995 29.015 23.3741C28.7076 23.5459 28.4516 23.7965 28.2732 24.1002C28.0948 24.4038 28.0005 24.7494 28 25.1016V47.1341C28.0023 47.6623 28.2143 48.168 28.5893 48.54C28.9644 48.912 29.4718 49.1198 30 49.1178C30.3687 49.1177 30.7302 49.016 31.045 48.8241L49.05 37.8066C49.3394 37.6302 49.5786 37.3823 49.7446 37.0868C49.9105 36.7912 49.9977 36.458 49.9977 36.1191C49.9977 35.7801 49.9105 35.4469 49.7446 35.1514C49.5786 34.8558 49.3394 34.608 49.05 34.4316V34.4291ZM30 47.1103V25.1178L47.9788 36.1178L30 47.1103Z" fill="#D7062F"/>
</g>
</svg>
