<svg width="22" height="27" viewBox="0 0 22 27" fill="none" xmlns="http://www.w3.org/2000/svg">
<path d="M21.05 11.4291L3.04 0.411562C2.73636 0.225628 2.38858 0.124123 2.0326 0.11753C1.67661 0.110938 1.32532 0.199497 1.015 0.374061C0.707637 0.545914 0.451595 0.796535 0.273205 1.10015C0.0948143 1.40377 0.000513572 1.74942 0 2.10156V24.1341C0.00231596 24.6623 0.214292 25.168 0.58933 25.54C0.964367 25.912 1.47177 26.1198 2 26.1178C2.36869 26.1177 2.73023 26.016 3.045 25.8241L21.05 14.8066C21.3394 14.6302 21.5786 14.3823 21.7446 14.0868C21.9105 13.7912 21.9977 13.458 21.9977 13.1191C21.9977 12.7801 21.9105 12.4469 21.7446 12.1514C21.5786 11.8558 21.3394 11.608 21.05 11.4316V11.4291ZM2 24.1103V2.11781L19.9788 13.1178L2 24.1103Z" fill="#D7062F"/>
</svg>
