<svg width="26" height="27" viewBox="0 0 26 27" fill="none" xmlns="http://www.w3.org/2000/svg">
<path d="M13 0.257812C10.4288 0.257813 7.91543 1.02025 5.77759 2.44871C3.63975 3.87717 1.97351 5.90749 0.989572 8.28293C0.0056327 10.6584 -0.251811 13.2722 0.249797 15.794C0.751405 18.3157 1.98953 20.6321 3.80762 22.4502C5.6257 24.2683 7.94208 25.5064 10.4638 26.008C12.9856 26.5096 15.5995 26.2522 17.9749 25.2682C20.3503 24.2843 22.3807 22.6181 23.8091 20.4802C25.2376 18.3424 26 15.829 26 13.2578C25.9964 9.81112 24.6256 6.50663 22.1884 4.06944C19.7512 1.63226 16.4467 0.261452 13 0.257812ZM14 24.2116V16.2578H17C17.2652 16.2578 17.5196 16.1525 17.7071 15.9649C17.8946 15.7774 18 15.523 18 15.2578C18 14.9926 17.8946 14.7382 17.7071 14.5507C17.5196 14.3632 17.2652 14.2578 17 14.2578H14V11.2578C14 10.7274 14.2107 10.2187 14.5858 9.8436C14.9609 9.46853 15.4696 9.25781 16 9.25781H18C18.2652 9.25781 18.5196 9.15246 18.7071 8.96492C18.8946 8.77738 19 8.52303 19 8.25781C19 7.9926 18.8946 7.73824 18.7071 7.55071C18.5196 7.36317 18.2652 7.25781 18 7.25781H16C14.9391 7.25781 13.9217 7.67924 13.1716 8.42939C12.4214 9.17953 12 10.1969 12 11.2578V14.2578H9.00001C8.73479 14.2578 8.48044 14.3632 8.2929 14.5507C8.10536 14.7382 8.00001 14.9926 8.00001 15.2578C8.00001 15.523 8.10536 15.7774 8.2929 15.9649C8.48044 16.1525 8.73479 16.2578 9.00001 16.2578H12V24.2116C9.181 23.9542 6.56971 22.62 4.7093 20.4865C2.8489 18.353 1.8826 15.5844 2.0114 12.7566C2.1402 9.9288 3.35419 7.2595 5.40085 5.30395C7.44751 3.34839 10.1693 2.25711 13 2.25711C15.8307 2.25711 18.5525 3.34839 20.5992 5.30395C22.6458 7.2595 23.8598 9.9288 23.9886 12.7566C24.1174 15.5844 23.1511 18.353 21.2907 20.4865C19.4303 22.62 16.819 23.9542 14 24.2116Z" fill="#12054A"/>
</svg>
