<svg width="26" height="27" viewBox="0 0 26 27" fill="none" xmlns="http://www.w3.org/2000/svg">
<path d="M13 7.25781C11.8133 7.25781 10.6533 7.60971 9.66658 8.269C8.67988 8.92828 7.91085 9.86536 7.45672 10.9617C7.0026 12.0581 6.88378 13.2645 7.11529 14.4284C7.3468 15.5922 7.91824 16.6613 8.75736 17.5005C9.59647 18.3396 10.6656 18.911 11.8295 19.1425C12.9933 19.374 14.1997 19.2552 15.2961 18.8011C16.3925 18.347 17.3295 17.5779 17.9888 16.5912C18.6481 15.6045 19 14.4445 19 13.2578C18.9983 11.667 18.3657 10.1419 17.2408 9.017C16.116 7.89214 14.5908 7.25947 13 7.25781ZM13 17.2578C12.2089 17.2578 11.4355 17.0232 10.7777 16.5837C10.1199 16.1442 9.60723 15.5195 9.30448 14.7885C9.00173 14.0576 8.92252 13.2534 9.07686 12.4775C9.2312 11.7015 9.61216 10.9888 10.1716 10.4294C10.731 9.86998 11.4437 9.48901 12.2196 9.33467C12.9956 9.18033 13.7998 9.25954 14.5307 9.56229C15.2616 9.86504 15.8864 10.3777 16.3259 11.0355C16.7654 11.6933 17 12.4667 17 13.2578C17 14.3187 16.5786 15.3361 15.8284 16.0862C15.0783 16.8364 14.0609 17.2578 13 17.2578ZM19 0.257812H7C5.14409 0.259798 3.36477 0.997933 2.05245 2.31026C0.740121 3.62258 0.00198528 5.40191 0 7.25781V19.2578C0.00198528 21.1137 0.740121 22.893 2.05245 24.2054C3.36477 25.5177 5.14409 26.2558 7 26.2578H19C20.8559 26.2558 22.6352 25.5177 23.9476 24.2054C25.2599 22.893 25.998 21.1137 26 19.2578V7.25781C25.998 5.40191 25.2599 3.62258 23.9476 2.31026C22.6352 0.997933 20.8559 0.259798 19 0.257812ZM24 19.2578C24 20.5839 23.4732 21.8557 22.5355 22.7933C21.5979 23.731 20.3261 24.2578 19 24.2578H7C5.67392 24.2578 4.40215 23.731 3.46447 22.7933C2.52678 21.8557 2 20.5839 2 19.2578V7.25781C2 5.93173 2.52678 4.65996 3.46447 3.72228C4.40215 2.7846 5.67392 2.25781 7 2.25781H19C20.3261 2.25781 21.5979 2.7846 22.5355 3.72228C23.4732 4.65996 24 5.93173 24 7.25781V19.2578ZM21 6.75781C21 7.05448 20.912 7.34449 20.7472 7.59117C20.5824 7.83784 20.3481 8.0301 20.074 8.14363C19.7999 8.25716 19.4983 8.28687 19.2074 8.22899C18.9164 8.17111 18.6491 8.02825 18.4393 7.81847C18.2296 7.60869 18.0867 7.34142 18.0288 7.05045C17.9709 6.75948 18.0007 6.45788 18.1142 6.18379C18.2277 5.9097 18.42 5.67543 18.6666 5.51061C18.9133 5.34579 19.2033 5.25781 19.5 5.25781C19.8978 5.25781 20.2794 5.41585 20.5607 5.69715C20.842 5.97846 21 6.35999 21 6.75781Z" fill="#12054A"/>
</svg>
