<svg width="27" height="25" viewBox="0 0 27 25" fill="none" xmlns="http://www.w3.org/2000/svg">
<path d="M26.9237 3.87582C26.8481 3.69308 26.72 3.53687 26.5555 3.42696C26.3911 3.31705 26.1978 3.25836 26 3.25832H22.1963C21.6644 2.35354 20.9076 1.60176 19.9992 1.07607C19.0909 0.550383 18.0619 0.268668 17.0125 0.258317C16.2306 0.248062 15.4546 0.394284 14.7301 0.688381C14.0056 0.982477 13.3472 1.41851 12.7937 1.97082C12.2241 2.52985 11.7719 3.19713 11.4639 3.93342C11.1559 4.66972 10.9981 5.46018 11 6.25832V7.01957C5.9675 5.69207 1.85125 1.59832 1.8075 1.55457C1.67334 1.41922 1.5033 1.32502 1.3174 1.28308C1.1315 1.24113 0.93748 1.25317 0.758197 1.31779C0.578914 1.38242 0.421828 1.49692 0.30544 1.64782C0.189051 1.79873 0.118207 1.97975 0.101249 2.16957C-0.437501 8.14332 1.2975 12.1408 2.85125 14.4421C3.60885 15.5797 4.53048 16.599 5.58625 17.4671C3.6825 19.6583 0.684999 20.8096 0.652499 20.8221C0.511392 20.8749 0.384052 20.959 0.279994 21.068C0.175937 21.1769 0.0978522 21.308 0.0515754 21.4514C0.00529851 21.5948 -0.00797411 21.7468 0.0127489 21.8961C0.0334719 22.0453 0.0876547 22.188 0.171249 22.3133C0.264999 22.4533 0.639999 22.9446 1.55625 23.4033C2.68875 23.9708 4.185 24.2583 6 24.2583C14.8337 24.2583 22.215 17.4558 22.9688 8.70332L26.7075 4.96582C26.8473 4.82589 26.9425 4.64764 26.981 4.45362C27.0195 4.2596 26.9995 4.05852 26.9237 3.87582ZM21.2987 7.55207C21.1273 7.72393 21.0242 7.9523 21.0088 8.19457C20.5 16.0808 13.91 22.2583 6 22.2583C4.68 22.2583 3.75 22.0833 3.0975 21.8733C4.53625 21.0921 6.5425 19.7483 7.8325 17.8133C7.90821 17.6995 7.9598 17.5714 7.98407 17.4369C8.00835 17.3025 8.0048 17.1644 7.97364 17.0313C7.94248 16.8983 7.88438 16.773 7.80291 16.6633C7.72145 16.5535 7.61836 16.4617 7.5 16.3933C7.44125 16.3596 2.01125 13.1008 2 4.39332C4 6.01832 7.65625 8.53957 11.8337 9.24207C11.9769 9.26621 12.1236 9.25888 12.2637 9.22059C12.4037 9.18231 12.5338 9.11398 12.6448 9.02036C12.7558 8.92675 12.845 8.81009 12.9064 8.67849C12.9677 8.54689 12.9997 8.40351 13 8.25832V6.25832C12.9989 5.72488 13.1045 5.1966 13.3105 4.70458C13.5166 4.21256 13.819 3.76672 14.2 3.39332C14.5652 3.02744 15 2.73849 15.4788 2.54354C15.9576 2.34859 16.4706 2.25161 16.9875 2.25832C18.57 2.27832 20.0487 3.24332 20.6675 4.65957C20.7455 4.83762 20.8737 4.98909 21.0364 5.09543C21.1992 5.20177 21.3894 5.25837 21.5837 5.25832H23.5837L21.2987 7.55207Z" fill="#12054A"/>
</svg>
