<svg width="26" height="27" viewBox="0 0 26 27" fill="none" xmlns="http://www.w3.org/2000/svg">
<path d="M20.4474 15.3628L16.4474 13.3628C16.29 13.2843 16.1146 13.2488 15.939 13.2598C15.7634 13.2708 15.5939 13.3279 15.4474 13.4253L13.6112 14.6503C12.7682 14.1869 12.0745 13.4932 11.6112 12.6503L12.8362 10.8141C12.9336 10.6676 12.9907 10.498 13.0017 10.3225C13.0127 10.1469 12.9771 9.97151 12.8987 9.81406L10.8987 5.81406C10.8158 5.64665 10.6876 5.50581 10.5288 5.40749C10.3699 5.30918 10.1867 5.25733 9.99991 5.25781C8.67383 5.25781 7.40206 5.7846 6.46437 6.72228C5.52669 7.65996 4.99991 8.93173 4.99991 10.2578C5.00322 13.1742 6.1632 15.9701 8.22539 18.0323C10.2876 20.0945 13.0835 21.2545 15.9999 21.2578C16.6565 21.2578 17.3067 21.1285 17.9133 20.8772C18.52 20.6259 19.0711 20.2576 19.5354 19.7933C19.9997 19.3291 20.368 18.7779 20.6193 18.1712C20.8706 17.5646 20.9999 16.9144 20.9999 16.2578C21 16.072 20.9484 15.8899 20.8508 15.7318C20.7532 15.5737 20.6135 15.4459 20.4474 15.3628ZM15.9999 19.2578C13.6138 19.2552 11.3261 18.3061 9.63887 16.6189C7.95162 14.9316 7.00255 12.6439 6.99991 10.2578C6.99971 9.56421 7.23986 8.89197 7.67949 8.35549C8.11911 7.81901 8.73104 7.45143 9.41116 7.31531L10.8462 10.1903L9.62491 12.0078C9.53365 12.1447 9.47757 12.302 9.46166 12.4658C9.44574 12.6295 9.47047 12.7947 9.53366 12.9466C10.2491 14.647 11.6019 15.9998 13.3024 16.7153C13.4548 16.7813 13.6212 16.8083 13.7866 16.7939C13.952 16.7795 14.1112 16.7241 14.2499 16.6328L16.0762 15.4153L18.9512 16.8503C18.814 17.5312 18.4448 18.1434 17.9066 18.5825C17.3684 19.0215 16.6945 19.2602 15.9999 19.2578ZM12.9999 0.257813C10.7555 0.257323 8.54918 0.837923 6.59572 1.9431C4.64227 3.04828 3.00822 4.64038 1.85262 6.56444C0.697029 8.4885 0.0592598 10.679 0.00139274 12.9226C-0.0564743 15.1663 0.467532 17.3867 1.52241 19.3678L0.103658 23.6241C-0.0138614 23.9765 -0.0309162 24.3546 0.0544051 24.7162C0.139726 25.0777 0.324052 25.4083 0.586722 25.671C0.849392 25.9337 1.18003 26.118 1.54157 26.2033C1.90311 26.2886 2.28127 26.2716 2.63366 26.1541L6.88991 24.7353C8.63337 25.6626 10.5652 26.1806 12.5387 26.2498C14.5122 26.3191 16.4756 25.9378 18.2797 25.135C20.0839 24.3321 21.6815 23.1288 22.9512 21.6164C24.2209 20.104 25.1293 18.3222 25.6076 16.4062C26.0858 14.4903 26.1213 12.4906 25.7113 10.5589C25.3013 8.62715 24.4567 6.81423 23.2414 5.25771C22.0262 3.70118 20.4723 2.44196 18.6978 1.57563C16.9232 0.709298 14.9746 0.258623 12.9999 0.257813ZM12.9999 24.2578C11.0661 24.2591 9.16628 23.7499 7.49241 22.7816C7.36985 22.7105 7.23359 22.6663 7.09266 22.6518C6.95172 22.6374 6.80933 22.6531 6.67491 22.6978L1.99991 24.2578L3.55866 19.5828C3.60359 19.4485 3.61947 19.3061 3.60525 19.1652C3.59103 19.0243 3.54702 18.888 3.47616 18.7653C2.26362 16.669 1.77679 14.231 2.09119 11.8298C2.40559 9.42849 3.50365 7.19808 5.21502 5.48455C6.92639 3.77102 9.1554 2.67015 11.5563 2.35272C13.9572 2.03528 16.3957 2.51903 18.4936 3.72892C20.5915 4.9388 22.2314 6.8072 23.1591 9.04425C24.0868 11.2813 24.2503 13.762 23.6242 16.1014C22.9981 18.4409 21.6176 20.5083 19.6966 21.9831C17.7756 23.4578 15.4217 24.2574 12.9999 24.2578Z" fill="#12054A"/>
</svg>
