<svg width="28" height="23" viewBox="0 0 28 23" fill="none" xmlns="http://www.w3.org/2000/svg">
<path d="M18.555 10.4253L12.555 6.42532C12.4044 6.32481 12.2293 6.2671 12.0484 6.25834C11.8675 6.24958 11.6877 6.29009 11.528 6.37556C11.3684 6.46103 11.2349 6.58825 11.1419 6.74363C11.0489 6.89901 10.9999 7.07673 11 7.25782V15.2578C10.9999 15.4389 11.0489 15.6166 11.1419 15.772C11.2349 15.9274 11.3684 16.0546 11.528 16.1401C11.6877 16.2255 11.8675 16.2661 12.0484 16.2573C12.2293 16.2485 12.4044 16.1908 12.555 16.0903L18.555 12.0903C18.6922 11.999 18.8047 11.8753 18.8825 11.73C18.9603 11.5848 19.001 11.4226 19.001 11.2578C19.001 11.0931 18.9603 10.9308 18.8825 10.7856C18.8047 10.6404 18.6922 10.5166 18.555 10.4253ZM13 13.3891V9.13282L16.1975 11.2578L13 13.3891ZM27.2913 3.94782C27.1735 3.487 26.9478 3.06079 26.6329 2.70436C26.318 2.34792 25.9228 2.07147 25.48 1.89782C21.195 0.242817 14.375 0.257817 14 0.257817C13.625 0.257817 6.805 0.242817 2.52 1.89782C2.0772 2.07147 1.68204 2.34792 1.36712 2.70436C1.05219 3.06079 0.826532 3.487 0.70875 3.94782C0.385 5.19532 0 7.47532 0 11.2578C0 15.0403 0.385 17.3203 0.70875 18.5678C0.826356 19.0289 1.05194 19.4553 1.36687 19.812C1.68181 20.1686 2.07706 20.4453 2.52 20.6191C6.625 22.2028 13.05 22.2578 13.9175 22.2578H14.0825C14.95 22.2578 21.3787 22.2028 25.48 20.6191C25.9229 20.4453 26.3182 20.1686 26.6331 19.812C26.9481 19.4553 27.1736 19.0289 27.2913 18.5678C27.615 17.3178 28 15.0403 28 11.2578C28 7.47532 27.615 5.19532 27.2913 3.94782ZM25.355 18.0728C25.3169 18.2262 25.243 18.3683 25.1394 18.4876C25.0357 18.6069 24.9053 18.6999 24.7588 18.7591C20.8025 20.2866 14.0738 20.2591 14.0088 20.2591H14C13.9325 20.2591 7.20875 20.2841 3.25 18.7591C3.10346 18.6999 2.97303 18.6069 2.86938 18.4876C2.76574 18.3683 2.69184 18.2262 2.65375 18.0728C2.35 16.9316 2 14.8291 2 11.2578C2 7.68657 2.35 5.58407 2.645 4.44907C2.68239 4.29479 2.75596 4.15164 2.85965 4.03144C2.96333 3.91123 3.09413 3.81744 3.24125 3.75782C7.05625 2.28407 13.4487 2.25782 13.9725 2.25782H14.0063C14.0738 2.25782 20.8038 2.23532 24.7563 3.75782C24.9028 3.81696 25.0332 3.90998 25.1369 4.02927C25.2405 4.14856 25.3144 4.29071 25.3525 4.44407C25.65 5.58407 26 7.68657 26 11.2578C26 14.8291 25.65 16.9316 25.355 18.0666V18.0728Z" fill="#12054A"/>
</svg>
